<svg width="180" height="87" viewBox="0 0 180 87" fill="none" xmlns="http://www.w3.org/2000/svg">
<rect x="0.618156" y="48.4361" width="174" height="39" rx="19.5" transform="rotate(-15.9511 0.618156 48.4361)" fill="#141414"/>
<path d="M32.0766 65.9656L30.2813 66.4787L31.1085 54.1355L33.0615 53.5773L40.2793 63.6211L38.4915 64.1321L32.7044 55.8813L32.6143 55.9071L32.0766 65.9656ZM31.1253 61.5004L36.9319 59.8408L37.3355 61.253L31.529 62.9126L31.1253 61.5004ZM44.15 62.6935C43.4689 62.8882 42.8136 62.8886 42.184 62.6948C41.553 62.496 40.995 62.1165 40.5098 61.5564C40.0233 60.9912 39.6512 60.2579 39.3936 59.3565C39.1331 58.4451 39.0632 57.6228 39.1841 56.8894C39.3049 56.1561 39.5821 55.5433 40.0156 55.0511C40.4491 54.5588 41.0013 54.2168 41.6724 54.025C42.1982 53.8747 42.6439 53.8421 43.0095 53.9272C43.3786 54.0059 43.6838 54.1353 43.9249 54.3156C44.171 54.4944 44.3667 54.6579 44.5119 54.806L44.6096 54.7781L43.4202 50.6166L45.0427 50.1528L48.2417 61.3453L46.6568 61.7983L46.2832 60.4912L46.148 60.5299C46.1029 60.7324 46.0207 60.9752 45.9012 61.2586C45.7818 61.5419 45.5868 61.817 45.3164 62.0839C45.0496 62.3443 44.6608 62.5475 44.15 62.6935ZM44.1059 61.2029C44.5766 61.0684 44.9389 60.8294 45.1929 60.486C45.4468 60.1426 45.5927 59.7244 45.6306 59.2314C45.6735 58.7371 45.6112 58.197 45.4437 57.611C45.2762 57.0251 45.0476 56.5379 44.7578 56.1495C44.4666 55.7561 44.1239 55.4857 43.7297 55.3383C43.334 55.186 42.8984 55.1778 42.4226 55.3138C41.9319 55.454 41.5602 55.6984 41.3077 56.0468C41.0552 56.3953 40.9093 56.8134 40.87 57.3014C40.8307 57.7893 40.8905 58.3112 41.0494 58.867C41.2097 59.4279 41.4369 59.9101 41.7309 60.3135C42.0236 60.712 42.3699 60.9949 42.7698 61.1623C43.1748 61.3282 43.6201 61.3418 44.1059 61.2029ZM53.384 60.0624C52.5978 60.2871 51.8577 60.3036 51.1637 60.1119C50.4748 59.9188 49.8745 59.5433 49.3629 58.9853C48.8563 58.4259 48.48 57.7155 48.2338 56.8542C47.9847 55.9829 47.9274 55.1759 48.0618 54.4332C48.1998 53.6842 48.5103 53.0456 48.9931 52.5176C49.481 51.9882 50.118 51.6111 50.9042 51.3864C51.6955 51.1602 52.4356 51.1437 53.1245 51.3368C53.8135 51.5299 54.4145 51.9079 54.9275 52.4709C55.4391 53.0289 55.8194 53.7435 56.0685 54.6149C56.3146 55.4762 56.368 56.2789 56.2286 57.023C56.0892 57.767 55.778 58.4031 55.2952 58.9311C54.8123 59.4591 54.1753 59.8362 53.384 60.0624ZM52.9911 58.6877C53.5069 58.5403 53.8939 58.2834 54.1522 57.9171C54.4104 57.5508 54.556 57.1219 54.5888 56.6304C54.6252 56.1324 54.5676 55.6181 54.4159 55.0872C54.2613 54.5464 54.037 54.0742 53.7429 53.6708C53.4538 53.2659 53.1029 52.9762 52.6901 52.8016C52.2773 52.6271 51.8129 52.6136 51.2971 52.761C50.7863 52.907 50.4018 53.1631 50.1436 53.5295C49.8904 53.8944 49.7456 54.3258 49.7091 54.8237C49.6727 55.3216 49.7318 55.841 49.8863 56.3819C50.0381 56.9127 50.261 57.3798 50.555 57.7833C50.8477 58.1818 51.1979 58.469 51.6057 58.6449C52.0185 58.8195 52.4803 58.8337 52.9911 58.6877ZM62.6213 57.414C62.1155 57.5586 61.6755 57.5923 61.3013 57.515C60.9307 57.4314 60.6199 57.3008 60.3687 57.1234C60.1226 56.9446 59.9244 56.7819 59.7742 56.6352L59.639 56.6739L60.0125 57.9809L58.4351 58.4318L55.2361 47.2394L56.8586 46.7756L58.048 50.9371L58.1382 50.9113C58.1882 50.7074 58.268 50.4652 58.3774 50.1848C58.4918 49.9029 58.685 49.631 58.9568 49.3691C59.2272 49.1023 59.6203 48.8951 60.1361 48.7477C60.8122 48.5545 61.4618 48.553 62.0849 48.7432C62.7131 48.932 63.2722 49.3058 63.7623 49.8645C64.2524 50.4232 64.6278 51.1582 64.8883 52.0696C65.1459 52.971 65.2175 53.7902 65.1031 54.5271C64.9873 55.259 64.7141 55.876 64.2834 56.3783C63.8564 56.8741 63.3023 57.2194 62.6213 57.414ZM61.871 56.1253C62.3568 55.9864 62.7252 55.7403 62.9763 55.3869C63.2273 55.0334 63.3718 54.6102 63.4097 54.1173C63.4511 53.6179 63.3917 53.0878 63.2314 52.5269C63.0725 51.9711 62.8475 51.4964 62.5563 51.103C62.265 50.7095 61.9202 50.4316 61.5217 50.2692C61.1232 50.1069 60.6785 50.0958 60.1878 50.2361C59.712 50.3721 59.3465 50.6093 59.0911 50.9477C58.8343 51.2811 58.6837 51.6925 58.6394 52.1818C58.5987 52.6648 58.6621 53.1992 58.8295 53.7851C58.997 54.371 59.2296 54.8625 59.5272 55.2595C59.8249 55.6565 60.1722 55.9337 60.5693 56.0911C60.9714 56.247 61.4053 56.2584 61.871 56.1253ZM70.9313 55.047C70.1101 55.2817 69.3481 55.3072 68.6456 55.1234C67.943 54.9396 67.3367 54.5712 66.8265 54.0182C66.32 53.4588 65.9429 52.746 65.6952 51.8796C65.449 51.0183 65.3899 50.2145 65.5179 49.4683C65.6509 48.7207 65.9531 48.0818 66.4245 47.5516C66.8995 47.015 67.5276 46.635 68.3088 46.4118C68.7846 46.2758 69.2675 46.2217 69.7575 46.2496C70.2476 46.2774 70.7184 46.4083 71.1698 46.6422C71.6213 46.8761 72.0262 47.2316 72.3847 47.7088C72.7482 48.1845 73.038 48.8004 73.2541 49.5566L73.4216 50.1425L66.7437 52.0512L66.3937 50.8268L72.2303 49.1586L71.5876 49.7811C71.4402 49.2653 71.2298 48.8324 70.9565 48.4826C70.6831 48.1328 70.3547 47.8935 69.9712 47.7648C69.5913 47.6296 69.166 47.6293 68.6953 47.7639C68.2246 47.8984 67.8536 48.1263 67.5825 48.4475C67.3164 48.7674 67.1487 49.1376 67.0793 49.5583C67.01 49.979 67.0383 50.4096 67.1642 50.8503L67.4026 51.6841C67.5672 52.26 67.8069 52.7197 68.1217 53.063C68.4365 53.4064 68.8018 53.6324 69.2174 53.7411C69.6381 53.8484 70.0863 53.8341 70.5621 53.6981C70.8725 53.6093 71.1401 53.4841 71.3647 53.3224C71.5944 53.1593 71.776 52.9611 71.9098 52.7278C72.0436 52.4946 72.1201 52.2317 72.1394 51.9391L73.7705 51.7897C73.7741 52.2762 73.6669 52.7348 73.4487 53.1655C73.2306 53.5962 72.9083 53.9754 72.4819 54.3031C72.0592 54.6244 71.5423 54.8723 70.9313 55.047ZM79.1674 52.5061L75.9683 41.3136L79.9646 40.1714C80.8309 39.9238 81.5953 39.8787 82.2578 40.036C82.9189 40.1883 83.4709 40.4991 83.9137 40.9684C84.3552 41.4326 84.674 42.0078 84.8701 42.6939C85.0662 43.3799 85.1002 44.0392 84.9722 44.6716C84.8428 45.2991 84.5359 45.8553 84.0516 46.3404C83.5709 46.8191 82.8949 47.183 82.0235 47.432L79.2893 48.2135L78.8813 46.7863L81.4579 46.0499C82.0137 45.891 82.4347 45.6678 82.7209 45.3801C83.012 45.0911 83.188 44.7591 83.2487 44.3842C83.3131 44.0029 83.2852 43.6019 83.1649 43.1812C83.0433 42.7556 82.8558 42.4029 82.6025 42.1232C82.3528 41.837 82.0287 41.6507 81.6302 41.5642C81.2317 41.4777 80.7545 41.5138 80.1986 41.6727L78.0728 42.2803L80.8575 52.023L79.1674 52.5061ZM88.4255 44.4728L89.849 49.453L88.2265 49.9168L85.0274 38.7243L86.6274 38.267L87.8212 42.4435L87.9338 42.4113C87.9989 41.8998 88.1938 41.4541 88.5186 41.0742C88.8469 40.6878 89.3366 40.4016 89.9876 40.2155C90.5635 40.0509 91.1004 40.0247 91.5983 40.137C92.0963 40.2493 92.5327 40.5064 92.9076 40.9085C93.2876 41.3091 93.5777 41.8599 93.7781 42.561L95.3025 47.8943L93.6649 48.3623L92.1964 43.2243C92.0189 42.6034 91.7212 42.1684 91.3034 41.9195C90.8906 41.6692 90.4012 41.6248 89.8354 41.7866C89.4447 41.8982 89.1235 42.0821 88.8717 42.3383C88.6185 42.5894 88.4486 42.8953 88.3621 43.2558C88.2756 43.6164 88.2967 44.0221 88.4255 44.4728ZM100.437 46.6135C99.6511 46.8383 98.911 46.8548 98.217 46.6631C97.528 46.47 96.9277 46.0945 96.4162 45.5365C95.9096 44.9771 95.5332 44.2667 95.287 43.4054C95.038 42.534 94.9806 41.7271 95.1151 40.9844C95.2531 40.2354 95.5635 39.5968 96.0464 39.0688C96.5342 38.5393 97.1713 38.1623 97.9575 37.9375C98.7487 37.7114 99.4888 37.6949 100.178 37.888C100.867 38.0811 101.468 38.4591 101.981 39.0221C102.492 39.5801 102.873 40.2947 103.122 41.1661C103.368 42.0274 103.421 42.8301 103.282 43.5742C103.142 44.3182 102.831 44.9543 102.348 45.4823C101.866 46.0103 101.229 46.3874 100.437 46.6135ZM100.044 45.2389C100.56 45.0915 100.947 44.8346 101.205 44.4683C101.464 44.102 101.609 43.6731 101.642 43.1816C101.679 42.6836 101.621 42.1692 101.469 41.6384C101.315 41.0976 101.09 40.6254 100.796 40.222C100.507 39.8171 100.156 39.5273 99.7433 39.3528C99.3305 39.1783 98.8662 39.1648 98.3504 39.3122C97.8396 39.4582 97.4551 39.7143 97.1969 40.0807C96.9436 40.4455 96.7988 40.877 96.7624 41.3749C96.7259 41.8728 96.785 42.3922 96.9396 42.9331C97.0913 43.4639 97.3142 43.931 97.6083 44.3345C97.9009 44.733 98.2512 45.0202 98.659 45.1961C99.0718 45.3706 99.5336 45.3849 100.044 45.2389ZM106.994 35.4685L107.37 36.783L102.788 38.0927L102.412 36.7781L106.994 35.4685ZM103.065 34.43L104.695 33.9642L106.963 41.8965C107.073 42.2821 107.234 42.5421 107.445 42.6766C107.656 42.8061 107.939 42.82 108.294 42.7184C108.379 42.6941 108.468 42.6633 108.56 42.6261C108.658 42.5874 108.754 42.5438 108.848 42.4951L109.542 43.7592C109.393 43.8615 109.225 43.9556 109.038 44.0415C108.851 44.1273 108.66 44.1982 108.465 44.254C107.739 44.4616 107.1 44.4248 106.549 44.1437C105.995 43.8576 105.622 43.374 105.427 42.6929L103.065 34.43ZM114.048 42.7232C113.262 42.9479 112.522 42.9644 111.828 42.7728C111.139 42.5797 110.539 42.2041 110.027 41.6462C109.521 41.0867 109.144 40.3764 108.898 39.515C108.649 38.6437 108.592 37.8367 108.726 37.0941C108.864 36.345 109.175 35.7065 109.658 35.1784C110.145 34.649 110.782 34.2719 111.569 34.0472C112.36 33.821 113.1 33.8045 113.789 33.9976C114.478 34.1907 115.079 34.5687 115.592 35.1317C116.104 35.6897 116.484 36.4044 116.733 37.2757C116.979 38.1371 117.032 38.9397 116.893 39.6838C116.754 40.4278 116.442 41.0639 115.96 41.5919C115.477 42.1199 114.84 42.497 114.048 42.7232ZM113.656 41.3485C114.171 41.2011 114.558 40.9442 114.817 40.5779C115.075 40.2116 115.22 39.7827 115.253 39.2912C115.29 38.7933 115.232 38.2789 115.08 37.7481C114.926 37.2072 114.701 36.7351 114.407 36.3316C114.118 35.9267 113.767 35.637 113.355 35.4625C112.942 35.2879 112.477 35.2744 111.962 35.4218C111.451 35.5678 111.066 35.824 110.808 36.1903C110.555 36.5552 110.41 36.9866 110.374 37.4845C110.337 37.9825 110.396 38.5019 110.551 39.0427C110.702 39.5735 110.925 40.0407 111.219 40.4441C111.512 40.8426 111.862 41.1298 112.27 41.3058C112.683 41.4803 113.145 41.4945 113.656 41.3485ZM123.567 32.9578L122.16 33.6362C121.985 33.383 121.734 33.1759 121.406 33.0149C121.083 32.8526 120.667 32.8444 120.156 32.9904C119.695 33.1221 119.34 33.3374 119.089 33.6365C118.842 33.9291 118.765 34.2357 118.856 34.5562C118.937 34.8366 119.104 35.0351 119.36 35.1517C119.62 35.2669 119.993 35.3119 120.479 35.2868L121.909 35.203C122.726 35.1593 123.378 35.2708 123.866 35.5376C124.354 35.8044 124.681 36.2308 124.849 36.8167C124.993 37.3225 124.977 37.8147 124.8 38.2933C124.621 38.7669 124.306 39.1901 123.854 39.5629C123.402 39.9307 122.837 40.2112 122.161 40.4044C121.22 40.6735 120.395 40.6897 119.689 40.453C118.982 40.2162 118.456 39.7491 118.11 39.0516L119.611 38.3625C119.829 38.7445 120.12 38.997 120.486 39.1201C120.856 39.2416 121.287 39.2323 121.778 39.092C122.309 38.9403 122.702 38.706 122.958 38.389C123.219 38.0706 123.304 37.7512 123.212 37.4307C123.061 36.8999 122.563 36.6549 121.719 36.6957L120.209 36.786C119.371 36.8305 118.709 36.7136 118.223 36.4353C117.741 36.1506 117.416 35.7128 117.247 35.1219C117.105 34.6261 117.118 34.1511 117.286 33.6968C117.459 33.241 117.759 32.8411 118.187 32.4969C118.617 32.1463 119.145 31.8816 119.771 31.7027C120.683 31.4421 121.453 31.436 122.082 31.6842C122.716 31.9309 123.211 32.3555 123.567 32.9578ZM126.885 33.4801L128.309 38.4604L126.686 38.9241L123.487 27.7317L125.087 27.2744L126.281 31.4509L126.394 31.4187C126.459 30.9072 126.654 30.4614 126.978 30.0815C127.307 29.6952 127.796 29.4089 128.447 29.2229C129.023 29.0583 129.56 29.0321 130.058 29.1444C130.556 29.2566 130.993 29.5138 131.368 29.9158C131.747 30.3164 132.038 30.8673 132.238 31.5684L133.762 36.9017L132.125 37.3697L130.656 32.2317C130.479 31.6107 130.181 31.1758 129.763 30.9269C129.35 30.6765 128.861 30.6322 128.295 30.7939C127.905 30.9056 127.583 31.0895 127.332 31.3456C127.078 31.5968 126.908 31.9026 126.822 32.2632C126.735 32.6238 126.757 33.0294 126.885 33.4801ZM138.897 35.6209C138.111 35.8456 137.371 35.8622 136.677 35.6705C135.988 35.4774 135.388 35.1019 134.876 34.5439C134.369 33.9845 133.993 33.2741 133.747 32.4128C133.498 31.5414 133.441 30.7344 133.575 29.9918C133.713 29.2427 134.023 28.6042 134.506 28.0762C134.994 27.5467 135.631 27.1696 136.417 26.9449C137.209 26.7187 137.949 26.7022 138.638 26.8953C139.327 27.0884 139.928 27.4665 140.441 28.0294C140.952 28.5874 141.333 29.3021 141.582 30.1734C141.828 31.0348 141.881 31.8375 141.742 32.5815C141.602 33.3256 141.291 33.9616 140.808 34.4896C140.325 35.0177 139.688 35.3948 138.897 35.6209ZM138.504 34.2463C139.02 34.0988 139.407 33.842 139.665 33.4756C139.924 33.1093 140.069 32.6804 140.102 32.1889C140.138 31.691 140.081 31.1766 139.929 30.6458C139.774 30.1049 139.55 29.6328 139.256 29.2293C138.967 28.8244 138.616 28.5347 138.203 28.3602C137.79 28.1857 137.326 28.1721 136.81 28.3195C136.299 28.4655 135.915 28.7217 135.657 29.088C135.404 29.4529 135.259 29.8843 135.222 30.3823C135.186 30.8802 135.245 31.3996 135.399 31.9404C135.551 32.4712 135.774 32.9384 136.068 33.3419C136.361 33.7403 136.711 34.0275 137.119 34.2035C137.532 34.378 137.993 34.3923 138.504 34.2463ZM144.846 37.1302L141.548 25.5922L143.125 25.1414L143.516 26.5085L143.651 26.4699C143.701 26.266 143.781 26.0238 143.891 25.7433C144.005 25.4614 144.198 25.1896 144.47 24.9277C144.74 24.6608 145.133 24.4537 145.649 24.3062C146.325 24.113 146.975 24.1115 147.598 24.3018C148.226 24.4906 148.785 24.8643 149.275 25.423C149.766 25.9817 150.141 26.7168 150.401 27.6282C150.659 28.5296 150.731 29.3487 150.616 30.0856C150.5 30.8175 150.227 31.4346 149.797 31.9368C149.37 32.4327 148.815 32.7779 148.134 32.9726C147.629 33.1171 147.189 33.1508 146.814 33.0736C146.444 32.9899 146.133 32.8594 145.882 32.682C145.636 32.5032 145.438 32.3404 145.287 32.1938L145.197 32.2195L146.468 36.6665L144.846 37.1302ZM147.384 31.6838C147.87 31.545 148.238 31.2988 148.489 30.9454C148.74 30.592 148.885 30.1688 148.923 29.6759C148.964 29.1765 148.905 28.6464 148.745 28.0855C148.586 27.5296 148.361 27.055 148.069 26.6615C147.778 26.2681 147.433 25.9902 147.035 25.8278C146.636 25.6654 146.192 25.6544 145.701 25.7947C145.225 25.9306 144.86 26.1678 144.604 26.5063C144.347 26.8397 144.197 27.251 144.153 27.7404C144.112 28.2233 144.175 28.7577 144.343 29.3436C144.51 29.9295 144.743 30.421 145.04 30.818C145.338 31.2151 145.685 31.4923 146.082 31.6496C146.485 31.8055 146.918 31.8169 147.384 31.6838Z" fill="white"/>
<rect x="0.618156" y="48.4361" width="174" height="39" rx="19.5" transform="rotate(-15.9511 0.618156 48.4361)" stroke="#303030"/>
</svg>
