<svg width="169" height="66" viewBox="0 0 169 66" fill="none" xmlns="http://www.w3.org/2000/svg">
<rect x="6.86567" y="0.574112" width="163" height="39" rx="19.5" transform="rotate(9.2836 6.86567 0.574112)" fill="#141414"/>
<path d="M27.8486 29.8426L26.0059 29.5414L32.0164 18.7288L34.021 19.0565L36.2681 31.2189L34.4331 30.9189L32.7157 20.9884L32.6232 20.9733L27.8486 29.8426ZM28.8918 25.398L34.8517 26.3722L34.6148 27.8217L28.6548 26.8475L28.8918 25.398ZM40.1648 32.03C39.4658 31.9158 38.8728 31.6368 38.3859 31.193C37.8999 30.7442 37.5569 30.163 37.3569 29.4495C37.1577 28.7309 37.1337 27.9089 37.285 26.9837C37.4379 26.0482 37.7253 25.2746 38.1472 24.6627C38.5692 24.0509 39.0811 23.6148 39.6831 23.3543C40.2851 23.0938 40.9305 23.0199 41.6193 23.1325C42.159 23.2207 42.576 23.3812 42.8705 23.6141C43.1709 23.8426 43.3917 24.0898 43.5329 24.3557C43.6793 24.6224 43.7867 24.8536 43.8549 25.0495L43.9551 25.0659L44.6534 20.7945L46.3188 21.0667L44.4409 32.5548L42.814 32.2889L43.0333 30.9473L42.8945 30.9247C42.7675 31.0886 42.5895 31.2732 42.3607 31.4786C42.1319 31.684 41.8382 31.8497 41.4799 31.9758C41.1275 32.0977 40.6891 32.1157 40.1648 32.03ZM40.7604 30.6629C41.2436 30.7419 41.6732 30.6802 42.0493 30.4778C42.4254 30.2754 42.7357 29.9593 42.9801 29.5296C43.2296 29.1007 43.4036 28.5855 43.5019 27.9841C43.6002 27.3827 43.6011 26.8446 43.5045 26.3697C43.4089 25.8896 43.2141 25.4989 42.9203 25.1976C42.6274 24.8911 42.2368 24.6979 41.7485 24.6181C41.2447 24.5358 40.8044 24.5984 40.4274 24.8059C40.0505 25.0134 39.7402 25.3295 39.4967 25.7541C39.2531 26.1787 39.0847 26.6763 38.9914 27.2468C38.8973 27.8225 38.8973 28.3555 38.9913 28.8459C39.0861 29.3311 39.2787 29.7346 39.5692 30.0565C39.8647 30.3793 40.2618 30.5814 40.7604 30.6629ZM49.6394 33.5867C48.8324 33.4548 48.1559 33.1542 47.6098 32.685C47.0689 32.2166 46.686 31.6209 46.4612 30.8981C46.2414 30.1761 46.2038 29.3731 46.3483 28.489C46.4945 27.5946 46.7867 26.8402 47.2249 26.2258C47.6691 25.607 48.2221 25.1618 48.884 24.89C49.551 24.619 50.2881 24.5495 51.0951 24.6814C51.9072 24.8142 52.5837 25.1148 53.1246 25.5831C53.6655 26.0515 54.048 26.6497 54.272 27.3777C54.4969 28.1005 54.5362 28.9091 54.39 29.8035C54.2455 30.6876 53.9516 31.4365 53.5083 32.0501C53.0649 32.6637 52.5123 33.1063 51.8504 33.3781C51.1885 33.6499 50.4515 33.7194 49.6394 33.5867ZM49.87 32.1757C50.3995 32.2623 50.8591 32.1949 51.2488 31.9736C51.6386 31.7523 51.9531 31.4264 52.1923 30.9958C52.4376 30.561 52.6047 30.0711 52.6938 29.5262C52.7845 28.9711 52.7829 28.4484 52.6889 27.958C52.6 27.4685 52.4061 27.0569 52.1071 26.723C51.8081 26.3891 51.3939 26.1789 50.8644 26.0924C50.3401 26.0067 49.8831 26.0745 49.4933 26.2957C49.1087 26.5179 48.7938 26.8464 48.5486 27.2812C48.3033 27.7161 48.1353 28.2111 48.0446 28.7663C47.9555 29.3111 47.958 29.8287 48.052 30.319C48.1468 30.8042 48.3412 31.2133 48.6351 31.5464C48.9341 31.8802 49.3457 32.09 49.87 32.1757ZM59.1242 35.1292C58.605 35.0443 58.1927 34.8872 57.8871 34.6578C57.5876 34.4241 57.362 34.1735 57.2105 33.906C57.0641 33.6393 56.9542 33.4076 56.8808 33.2109L56.742 33.1882L56.5227 34.5298L54.9036 34.2651L56.7815 22.7769L58.4469 23.0492L57.7486 27.3206L57.8412 27.3357C57.9734 27.1726 58.1488 26.9876 58.3673 26.7805C58.591 26.5743 58.8816 26.4107 59.2392 26.2897C59.5975 26.1636 60.0414 26.1438 60.5709 26.2304C61.2648 26.3438 61.853 26.6194 62.3356 27.0571C62.8233 27.4957 63.1698 28.0722 63.3749 28.7865C63.5801 29.5008 63.6062 30.3258 63.4533 31.2613C63.302 32.1865 63.0176 32.958 62.6 33.5758C62.1832 34.1884 61.6729 34.6302 61.0693 34.9009C60.4716 35.1673 59.8232 35.2434 59.1242 35.1292ZM58.9949 33.6435C59.4935 33.725 59.9317 33.6595 60.3095 33.4468C60.6873 33.2341 60.9984 32.9129 61.2428 32.4832C61.4932 32.0491 61.6655 31.5443 61.7596 30.9686C61.8528 30.398 61.8516 29.8727 61.7559 29.3926C61.6602 28.9126 61.4668 28.5142 61.1755 28.1974C60.8843 27.8807 60.4868 27.6811 59.983 27.5988C59.4947 27.5189 59.0629 27.5777 58.6876 27.7749C58.3132 27.967 58.0016 28.275 57.7529 28.6987C57.5102 29.1182 57.3397 29.6286 57.2414 30.23C57.1431 30.8314 57.1439 31.3751 57.2439 31.8612C57.3439 32.3472 57.5399 32.746 57.832 33.0576C58.1293 33.3701 58.5169 33.5654 58.9949 33.6435ZM67.6503 36.5308C66.8074 36.393 66.1073 36.0912 65.5501 35.6254C64.993 35.1597 64.6015 34.5679 64.3758 33.8502C64.1561 33.1283 64.1189 32.3226 64.2643 31.4334C64.4088 30.5493 64.698 29.797 65.1319 29.1766C65.5709 28.557 66.1166 28.1079 66.7691 27.8293C67.4275 27.5464 68.1577 27.4705 68.9595 27.6016C69.4478 27.6814 69.9077 27.8384 70.3391 28.0725C70.7706 28.3066 71.1406 28.6257 71.4492 29.0298C71.7579 29.4338 71.9726 29.928 72.0935 30.5125C72.2195 31.0978 72.219 31.7785 72.0922 32.5546L71.9938 33.156L65.1395 32.0356L65.3449 30.7789L71.3357 31.7581L70.489 32.0472C70.5755 31.5177 70.5697 31.0366 70.4716 30.6036C70.3735 30.1706 70.1784 29.8142 69.8865 29.5343C69.6004 29.25 69.2158 29.0684 68.7327 28.9894C68.2495 28.9104 67.8168 28.9585 67.4346 29.1335C67.0576 29.3093 66.748 29.5727 66.5059 29.9237C66.2638 30.2747 66.1058 30.6763 66.0319 31.1286L65.892 31.9845C65.7954 32.5756 65.8162 33.0935 65.9546 33.5384C66.093 33.9832 66.327 34.3433 66.6567 34.6189C66.9915 34.8953 67.4031 35.0734 67.8914 35.1532C68.2101 35.2053 68.5055 35.2061 68.7776 35.1556C69.0549 35.1059 69.3037 35.0041 69.5241 34.8501C69.7446 34.6962 69.9259 34.491 70.0681 34.2345L71.6072 34.7948C71.4031 35.2364 71.1106 35.6055 70.7296 35.9021C70.3486 36.1987 69.8955 36.4043 69.3701 36.519C68.8507 36.6294 68.2774 36.6333 67.6503 36.5308ZM76.0603 37.7234L77.4693 29.1035L79.1347 29.3757L77.7257 37.9957L76.0603 37.7234ZM78.5265 27.9147C78.2335 27.8668 78.0002 27.7284 77.8265 27.4994C77.6528 27.2705 77.5883 27.0198 77.6328 26.7474C77.6782 26.4698 77.8196 26.2502 78.0572 26.0885C78.2947 25.9268 78.56 25.8699 78.8529 25.9177C79.1408 25.9648 79.3715 26.1028 79.5452 26.3317C79.724 26.5615 79.7908 26.8152 79.7454 27.0927C79.7009 27.3652 79.5573 27.5818 79.3146 27.7427C79.0771 27.9044 78.8144 27.9617 78.5265 27.9147ZM82.8727 27.0419L80.9948 38.53L79.3294 38.2578L81.2073 26.7696L82.8727 27.0419ZM86.1418 27.5763L84.2639 39.0644L82.5985 38.7922L84.4764 27.304L86.1418 27.5763ZM91.9087 36.6568L92.7355 31.5989L94.4009 31.8711L92.9918 40.4911L91.3573 40.2239L91.6018 38.7281L91.5093 38.713C91.2289 39.1369 90.8476 39.4677 90.3654 39.7055C89.8832 39.9434 89.3187 40.0068 88.6719 39.8958C88.1168 39.805 87.6456 39.604 87.2585 39.2927C86.8765 38.9822 86.6042 38.5656 86.4416 38.043C86.2841 37.5211 86.2638 36.903 86.3806 36.1885L87.2767 30.7066L88.9421 30.9788L88.0775 36.268C87.9825 36.8488 88.071 37.3409 88.3428 37.7442C88.6147 38.1475 89.0106 38.389 89.5306 38.4687C89.8441 38.52 90.1677 38.4937 90.5013 38.3899C90.84 38.287 91.1383 38.093 91.396 37.8079C91.6588 37.5236 91.8297 37.1399 91.9087 36.6568ZM102.105 35.2995L100.543 35.3134C100.493 35.0095 100.353 34.715 100.126 34.4297C99.9029 34.1453 99.5295 33.9602 99.0052 33.8745C98.5323 33.7972 98.1189 33.8405 97.7649 34.0043C97.4169 34.1637 97.216 34.408 97.1622 34.7369C97.1152 35.0248 97.1823 35.2759 97.3636 35.4902C97.5501 35.7054 97.8684 35.9052 98.3185 36.0896L99.6482 36.6236C100.405 36.9321 100.948 37.311 101.275 37.7604C101.603 38.2097 101.718 38.7351 101.619 39.3365C101.534 39.8557 101.31 40.2939 100.945 40.6512C100.582 41.0034 100.116 41.2519 99.5488 41.3967C98.9824 41.5363 98.3522 41.5494 97.6583 41.436C96.692 41.278 95.9396 40.9413 95.4011 40.4258C94.8626 39.9103 94.5858 39.2634 94.5705 38.4851L96.2222 38.5018C96.2561 38.9401 96.4122 39.2928 96.6905 39.5599C96.9739 39.8279 97.3674 40.0031 97.8712 40.0854C98.416 40.1745 98.8718 40.1303 99.2386 39.9527C99.6105 39.776 99.8234 39.5232 99.8772 39.1942C99.9662 38.6494 99.6202 38.2155 98.8392 37.8926L97.4349 37.3305C96.6581 37.0136 96.1094 36.6257 95.7885 36.1669C95.4737 35.7038 95.3659 35.169 95.465 34.5624C95.5482 34.0536 95.7627 33.6295 96.1084 33.2902C96.4592 32.9517 96.9012 32.7179 97.4342 32.5886C97.9732 32.4551 98.564 32.4408 99.2065 32.5458C100.142 32.6988 100.841 33.0215 101.304 33.5141C101.773 34.0076 102.039 34.6027 102.105 35.2995ZM107.801 34.0616L107.581 35.4108L102.877 34.6421L103.098 33.2928L107.801 34.0616ZM104.69 31.4473L106.363 31.7208L105.032 39.8627C104.967 40.2585 105.002 40.5624 105.136 40.7743C105.272 40.9811 105.522 41.1143 105.886 41.174C105.974 41.1883 106.067 41.1982 106.167 41.2039C106.271 41.2105 106.376 41.2118 106.483 41.2081L106.572 42.6476C106.393 42.6764 106.201 42.6898 105.995 42.6879C105.79 42.686 105.587 42.6686 105.386 42.6359C104.641 42.514 104.079 42.2084 103.7 41.719C103.321 41.2244 103.189 40.6275 103.304 39.9285L104.69 31.4473ZM107.595 42.8782L109.004 34.2582L110.615 34.5216L110.39 35.9017L110.482 35.9168C110.717 35.4803 111.054 35.1607 111.494 34.9581C111.939 34.7512 112.414 34.6889 112.918 34.7713C113.021 34.7881 113.14 34.813 113.278 34.8459C113.421 34.8746 113.535 34.9012 113.621 34.9258L113.359 36.5295C113.295 36.498 113.178 36.4577 113.006 36.4086C112.84 36.3603 112.67 36.3219 112.495 36.2933C112.099 36.2286 111.73 36.2554 111.389 36.3738C111.054 36.4879 110.772 36.6767 110.545 36.9403C110.323 37.1996 110.181 37.5194 110.119 37.8998L109.26 43.1504L107.595 42.8782ZM115.398 44.3437C114.853 44.2546 114.376 44.0737 113.967 43.801C113.559 43.5231 113.258 43.1679 113.065 42.7352C112.871 42.3026 112.821 41.8061 112.912 41.2458C112.992 40.7575 113.15 40.3743 113.385 40.0961C113.627 39.8137 113.922 39.606 114.271 39.473C114.62 39.3401 114.997 39.2592 115.403 39.2306C115.809 39.2019 116.221 39.1955 116.641 39.2113C117.169 39.2396 117.596 39.2593 117.922 39.2702C118.247 39.2812 118.489 39.2548 118.647 39.1909C118.811 39.1228 118.91 38.9885 118.942 38.788L118.949 38.7494C119.029 38.2611 118.952 37.8606 118.718 37.548C118.489 37.2362 118.105 37.0361 117.565 36.9479C117.005 36.8563 116.54 36.907 116.171 37.1C115.807 37.2886 115.539 37.5271 115.365 37.8153L113.844 37.1946C114.12 36.7014 114.463 36.3248 114.875 36.065C115.293 35.8008 115.748 35.6324 116.24 35.5598C116.738 35.488 117.243 35.4942 117.757 35.5782C118.102 35.6345 118.46 35.7353 118.832 35.8805C119.205 36.0206 119.543 36.2264 119.847 36.4977C120.157 36.7647 120.388 37.1138 120.539 37.5449C120.69 37.9759 120.714 38.505 120.612 39.1321L119.677 44.8531L118.034 44.5846L118.227 43.405L118.166 43.3949C118.028 43.5888 117.832 43.7731 117.577 43.9477C117.326 44.1232 117.02 44.2526 116.658 44.3359C116.296 44.4192 115.876 44.4218 115.398 44.3437ZM115.98 43.0613C116.448 43.1378 116.861 43.113 117.219 42.9868C117.578 42.8556 117.87 42.6552 118.093 42.3856C118.317 42.116 118.456 41.8142 118.51 41.4801L118.693 40.3621C118.622 40.4086 118.498 40.4436 118.32 40.4673C118.142 40.491 117.942 40.5032 117.72 40.5039C117.498 40.5046 117.282 40.5035 117.071 40.5008C116.861 40.4928 116.686 40.4853 116.545 40.478C116.213 40.4713 115.906 40.495 115.623 40.5489C115.34 40.5978 115.102 40.7013 114.907 40.8594C114.718 41.0133 114.599 41.2393 114.551 41.5374C114.483 41.9538 114.586 42.2925 114.86 42.5537C115.134 42.8148 115.507 42.984 115.98 43.0613ZM126.706 37.1519L126.486 38.5012L121.783 37.7324L122.003 36.3831L126.706 37.1519ZM123.595 34.5376L125.268 34.8111L123.937 42.953C123.873 43.3488 123.908 43.6527 124.042 43.8646C124.177 44.0714 124.427 44.2046 124.792 44.2643C124.879 44.2786 124.973 44.2886 125.072 44.2942C125.176 44.3008 125.282 44.3022 125.388 44.2984L125.477 45.7379C125.298 45.7667 125.106 45.7802 124.901 45.7782C124.695 45.7763 124.492 45.759 124.292 45.7262C123.546 45.6044 122.984 45.2987 122.605 44.8093C122.227 44.3147 122.095 43.7179 122.209 43.0188L123.595 34.5376ZM129.995 46.7218C129.188 46.5899 128.511 46.2893 127.965 45.82C127.424 45.3517 127.041 44.756 126.817 44.0332C126.597 43.3112 126.559 42.5082 126.704 41.6241C126.85 40.7297 127.142 39.9753 127.58 39.3608C128.025 38.7421 128.578 38.2968 129.239 38.0251C129.906 37.7541 130.643 37.6846 131.45 37.8165C132.263 37.9493 132.939 38.2498 133.48 38.7182C134.021 39.1866 134.403 39.7848 134.627 40.5128C134.852 41.2356 134.892 42.0442 134.745 42.9386C134.601 43.8227 134.307 44.5715 133.864 45.1851C133.42 45.7987 132.868 46.2414 132.206 46.5132C131.544 46.785 130.807 46.8545 129.995 46.7218ZM130.225 45.3108C130.755 45.3973 131.214 45.33 131.604 45.1087C131.994 44.8874 132.308 44.5615 132.548 44.1309C132.793 43.696 132.96 43.2062 133.049 42.6613C133.14 42.1062 133.138 41.5835 133.044 41.0931C132.955 40.6036 132.762 40.1919 132.462 39.8581C132.163 39.5242 131.749 39.314 131.22 39.2275C130.696 39.1418 130.239 39.2096 129.849 39.4308C129.464 39.6529 129.149 39.9814 128.904 40.4163C128.659 40.8512 128.491 41.3462 128.4 41.9013C128.311 42.4462 128.313 42.9638 128.407 43.4541C128.502 43.9393 128.697 44.3484 128.99 44.6815C129.289 45.0153 129.701 45.2251 130.225 45.3108ZM135.259 47.4002L136.668 38.7802L138.279 39.0436L138.054 40.4237L138.146 40.4389C138.381 40.0023 138.719 39.6827 139.158 39.4801C139.604 39.2733 140.078 39.211 140.582 39.2933C140.685 39.3101 140.805 39.335 140.942 39.368C141.085 39.3966 141.199 39.4233 141.285 39.4478L141.023 41.0515C140.959 41.0201 140.842 40.9797 140.67 40.9306C140.504 40.8823 140.334 40.8439 140.159 40.8153C139.763 40.7506 139.395 40.7775 139.053 40.8958C138.718 41.0099 138.436 41.1987 138.209 41.4623C137.987 41.7216 137.845 42.0414 137.783 42.4218L136.924 47.6724L135.259 47.4002Z" fill="white"/>
<rect x="6.86567" y="0.574112" width="163" height="39" rx="19.5" transform="rotate(9.2836 6.86567 0.574112)" stroke="#303030"/>
</svg>
