<svg width="116" height="72" viewBox="0 0 116 72" fill="none" xmlns="http://www.w3.org/2000/svg">
<rect x="12.5628" y="0.629013" width="107" height="39" rx="19.5" transform="rotate(17.8179 12.5628 0.629013)" fill="#141414"/>
<path d="M28.0253 32.3834L31.5872 21.3012L35.5441 22.573C36.4019 22.8487 37.0625 23.236 37.5258 23.7351C37.9906 24.2291 38.2767 24.7943 38.3841 25.4306C38.493 26.0619 38.4383 26.7172 38.2199 27.3965C38.0016 28.0759 37.6634 28.6428 37.2055 29.0974C36.7492 29.547 36.1849 29.8389 35.5126 29.973C34.847 30.1037 34.0827 30.0304 33.22 29.7531L30.5126 28.8829L30.9668 27.4697L33.518 28.2897C34.0684 28.4666 34.5424 28.515 34.9402 28.435C35.3429 28.3565 35.6737 28.1783 35.9326 27.9005C36.198 27.6193 36.3977 27.2704 36.5316 26.8539C36.667 26.4324 36.7072 26.035 36.6521 25.6617C36.6036 25.285 36.4378 24.95 36.1546 24.6566C35.8714 24.3631 35.4546 24.128 34.9042 23.9511L32.7994 23.2745L29.6988 32.9213L28.0253 32.3834ZM36.9952 35.2665L39.6679 26.951L41.2224 27.4507L40.7945 28.782L40.8837 28.8107C41.1809 28.4139 41.5618 28.1479 42.0265 28.0127C42.4977 27.8742 42.9763 27.8831 43.4622 28.0393C43.5614 28.0712 43.6763 28.1136 43.807 28.1665C43.9442 28.2161 44.0534 28.2594 44.1345 28.2964L43.6373 29.8435C43.5792 29.8029 43.4691 29.7456 43.3068 29.6716C43.1496 29.5992 42.9867 29.5359 42.8181 29.4817C42.4363 29.359 42.0678 29.3308 41.7128 29.3972C41.3643 29.4603 41.0578 29.6052 40.7934 29.8321C40.5356 30.0556 40.3477 30.3508 40.2298 30.7177L38.6018 35.7828L36.9952 35.2665ZM45.3524 38.1413C44.5739 37.8911 43.9495 37.4934 43.4791 36.9483C43.0137 36.4049 42.7234 35.759 42.6083 35.0108C42.4982 34.2642 42.5801 33.4645 42.8543 32.6116C43.1316 31.7488 43.5325 31.0462 44.057 30.5035C44.5881 29.9576 45.2011 29.5993 45.896 29.4288C46.5958 29.2598 47.335 29.3004 48.1135 29.5506C48.8969 29.8025 49.5213 30.2001 49.9867 30.7436C50.4521 31.2871 50.7416 31.9354 50.8551 32.6885C50.9702 33.4367 50.8891 34.2422 50.6118 35.105C50.3377 35.9579 49.9359 36.6548 49.4064 37.1958C48.8769 37.7368 48.2648 38.0926 47.5699 38.2632C46.875 38.4337 46.1358 38.3931 45.3524 38.1413ZM45.7898 36.7802C46.3006 36.9443 46.7651 36.9459 47.1833 36.7849C47.6016 36.6239 47.961 36.3483 48.2615 35.958C48.5686 35.5643 48.8066 35.1047 48.9755 34.5791C49.1477 34.0435 49.2236 33.5264 49.2034 33.0275C49.1882 32.5302 49.0575 32.0943 48.8113 31.7198C48.5652 31.3453 48.1867 31.0759 47.676 30.9118C47.1702 30.7492 46.7082 30.7484 46.2899 30.9094C45.8766 31.072 45.5164 31.3501 45.2093 31.7438C44.9023 32.1374 44.6627 32.602 44.4906 33.1376C44.3216 33.6632 44.2473 34.1754 44.2675 34.6742C44.2892 35.1681 44.4207 35.6016 44.6619 35.9745C44.9081 36.349 45.2841 36.6176 45.7898 36.7802ZM56.9979 32.5211L56.5795 33.8227L52.0425 32.3644L52.4608 31.0628L56.9979 32.5211ZM54.3091 29.474L55.9231 29.9928L53.3986 37.8471C53.2759 38.2289 53.2652 38.5345 53.3665 38.764C53.4694 38.9886 53.6969 39.1574 54.0489 39.2706C54.1332 39.2977 54.2241 39.3214 54.3215 39.3418C54.4238 39.3637 54.5278 39.3807 54.6333 39.3928L54.508 40.8296C54.3268 40.8315 54.1348 40.8163 53.9318 40.7839C53.7289 40.7515 53.5307 40.7042 53.3373 40.6421C52.6183 40.411 52.1077 40.0253 51.8054 39.485C51.5047 38.9397 51.4627 38.3299 51.6795 37.6556L54.3091 29.474ZM58.8296 42.473C58.0511 42.2228 57.4267 41.8251 56.9563 41.2801C56.4909 40.7366 56.2007 40.0907 56.0855 39.3425C55.9754 38.5959 56.0574 37.7962 56.3315 36.9433C56.6088 36.0806 57.0097 35.3779 57.5342 34.8353C58.0653 34.2893 58.6783 33.931 59.3732 33.7605C60.073 33.5915 60.8122 33.6321 61.5907 33.8824C62.3741 34.1342 62.9986 34.5318 63.464 35.0753C63.9294 35.6188 64.2188 36.2671 64.3323 37.0202C64.4475 37.7684 64.3664 38.5739 64.0891 39.4367C63.8149 40.2896 63.4131 40.9865 62.8837 41.5275C62.3542 42.0685 61.742 42.4243 61.0471 42.5949C60.3522 42.7654 59.613 42.7248 58.8296 42.473ZM59.2671 41.1119C59.7778 41.276 60.2423 41.2776 60.6606 41.1166C61.0789 40.9556 61.4382 40.68 61.7388 40.2897C62.0458 39.896 62.2838 39.4364 62.4528 38.9108C62.6249 38.3753 62.7008 37.8581 62.6806 37.3592C62.6654 36.8619 62.5347 36.426 62.2885 36.0515C62.0424 35.677 61.6639 35.4076 61.1532 35.2435C60.6475 35.0809 60.1854 35.0801 59.7671 35.2411C59.3538 35.4037 58.9936 35.6818 58.6866 36.0755C58.3795 36.4691 58.1399 36.9337 57.9678 37.4693C57.7989 37.9949 57.7245 38.5071 57.7447 39.006C57.7665 39.4999 57.898 39.9333 58.1392 40.3062C58.3853 40.6808 58.7613 40.9493 59.2671 41.1119ZM62.9356 47.0341L66.6075 35.6097L68.1694 36.1117L67.7343 37.4654L67.8682 37.5084C68.0231 37.3667 68.224 37.2097 68.4709 37.0374C68.7227 36.8667 69.0344 36.7481 69.4059 36.6815C69.7791 36.6099 70.221 36.6562 70.7317 36.8204C71.4011 37.0355 71.9419 37.3954 72.3542 37.8999C72.7714 38.406 73.0285 39.0275 73.1254 39.7643C73.2223 40.5012 73.1257 41.3209 72.8356 42.2233C72.5487 43.1158 72.153 43.8366 71.6483 44.3856C71.1452 44.9296 70.575 45.2907 69.9379 45.4689C69.3073 45.6437 68.6548 45.6227 67.9804 45.4059C67.4796 45.245 67.0952 45.0284 66.827 44.7562C66.5655 44.4807 66.3796 44.1994 66.2695 43.9123C66.1643 43.6268 66.09 43.3814 66.0466 43.176L65.9573 43.1473L64.5421 47.5505L62.9356 47.0341ZM68.0731 43.9176C68.5541 44.0722 68.9972 44.0724 69.4023 43.9181C69.8075 43.7639 70.1628 43.4924 70.4683 43.1037C70.7803 42.7116 71.0256 42.2379 71.2041 41.6825C71.381 41.1321 71.4577 40.6124 71.4344 40.1235C71.411 39.6346 71.2788 39.2119 71.0378 38.8554C70.7967 38.4989 70.4332 38.2426 69.9473 38.0864C69.4763 37.935 69.0405 37.929 68.6401 38.0683C68.2413 38.2028 67.8875 38.4611 67.5787 38.8432C67.2764 39.222 67.032 39.7015 66.8456 40.2816C66.6591 40.8618 66.5792 41.3996 66.606 41.8951C66.6327 42.3906 66.7674 42.8141 67.01 43.1656C67.2576 43.5187 67.612 43.7694 68.0731 43.9176ZM72.6816 46.7364L75.3543 38.421L76.9608 38.9374L74.2882 47.2528L72.6816 46.7364ZM76.5762 37.4023C76.2935 37.3114 76.0833 37.1399 75.9456 36.8877C75.8078 36.6356 75.7811 36.3781 75.8656 36.1153C75.9516 35.8475 76.1241 35.6513 76.383 35.5266C76.6419 35.402 76.9127 35.385 77.1953 35.4759C77.473 35.5651 77.6807 35.7358 77.8185 35.988C77.9613 36.2418 77.9896 36.5025 77.9035 36.7703C77.8191 37.0331 77.6449 37.226 77.381 37.3491C77.1221 37.4738 76.8538 37.4915 76.5762 37.4023ZM79.3578 49.0709C78.5446 48.8096 77.8971 48.4072 77.4152 47.8639C76.9334 47.3206 76.6341 46.6774 76.5173 45.9341C76.4072 45.1875 76.49 44.3853 76.7657 43.5275C77.0398 42.6746 77.4374 41.9736 77.9586 41.4245C78.4847 40.8769 79.0911 40.5138 79.7776 40.3351C80.4708 40.153 81.2041 40.1863 81.9776 40.4349C82.4487 40.5863 82.8801 40.8098 83.272 41.1053C83.6639 41.4009 83.9825 41.7714 84.2278 42.2167C84.4731 42.6621 84.6121 43.1827 84.6449 43.7787C84.6826 44.3761 84.5812 45.0493 84.3405 45.798L84.154 46.3781L77.5419 44.2529L77.9315 43.0406L83.7107 44.898L82.8304 45.0582C82.9945 44.5475 83.0602 44.0708 83.0274 43.6281C82.9947 43.1853 82.8547 42.8039 82.6075 42.4837C82.3668 42.1602 82.0134 41.9235 81.5473 41.7737C81.0812 41.6239 80.6462 41.6072 80.2422 41.7235C79.8433 41.8415 79.498 42.056 79.2066 42.3672C78.9151 42.6783 78.6992 43.0521 78.559 43.4884L78.2936 44.314C78.1103 44.8842 78.0541 45.3996 78.125 45.86C78.1958 46.3204 78.3738 46.7113 78.6589 47.0328C78.949 47.3558 79.3295 47.593 79.8006 47.7444C80.108 47.8432 80.4001 47.8878 80.6767 47.8782C80.9582 47.8703 81.2194 47.8065 81.4603 47.687C81.7011 47.5674 81.9109 47.3914 82.0896 47.1589L83.5285 47.9414C83.2611 48.3478 82.917 48.6694 82.4963 48.9062C82.0755 49.143 81.5968 49.2791 81.0603 49.3145C80.5302 49.3466 79.9628 49.2654 79.3578 49.0709Z" fill="white"/>
<rect x="12.5628" y="0.629013" width="107" height="39" rx="19.5" transform="rotate(17.8179 12.5628 0.629013)" stroke="#303030"/>
</svg>
