<svg width="128" height="73" viewBox="0 0 128 73" fill="none" xmlns="http://www.w3.org/2000/svg">
<rect x="0.621358" y="34.6827" width="120" height="39" rx="19.5" transform="rotate(-16.4899 0.621358 34.6827)" fill="#141414"/>
<path d="M33.5092 51.5408L27.1187 41.2926L28.8866 40.7692L33.6181 48.7709L33.723 48.7399L33.4262 39.4254L35.1792 38.9065L39.9953 46.8913L40.1077 46.858L39.7113 37.5648L41.4942 37.0371L41.6896 49.1192L39.9965 49.6204L35.1792 41.9618L35.0893 41.9884L35.2172 51.0352L33.5092 51.5408ZM45.7478 42.516L47.218 47.4826L45.5999 47.9616L42.2958 36.7998L43.8914 36.3275L45.1244 40.4925L45.2367 40.4593C45.297 39.9472 45.4877 39.4996 45.8089 39.1167C46.1336 38.7272 46.6205 38.4364 47.2697 38.2442C47.8441 38.0742 48.3807 38.043 48.8797 38.1506C49.3787 38.2582 49.8175 38.5112 50.1962 38.9097C50.5799 39.3067 50.8752 39.8548 51.0822 40.554L52.6566 45.8727L51.0236 46.3561L49.5067 41.2322C49.3234 40.6129 49.0217 40.1808 48.6015 39.9358C48.1864 39.6893 47.6966 39.6496 47.1323 39.8167C46.7428 39.932 46.4233 40.1189 46.1739 40.3774C45.9231 40.6309 45.7561 40.9384 45.6729 41.2997C45.5898 41.6611 45.6147 42.0665 45.7478 42.516ZM54.2148 45.4115L51.7356 37.0363L53.3537 36.5573L55.8329 44.9325L54.2148 45.4115ZM52.1707 35.5061C51.886 35.5904 51.6157 35.5672 51.3598 35.4366C51.1038 35.3059 50.9367 35.1083 50.8583 34.8436C50.7785 34.5739 50.8104 34.3146 50.954 34.0657C51.0975 33.8168 51.3117 33.6502 51.5963 33.5659C51.876 33.4831 52.1438 33.5071 52.3998 33.6377C52.6607 33.7669 52.8311 33.9663 52.9109 34.236C52.9893 34.5007 52.9542 34.7582 52.8056 35.0086C52.662 35.2575 52.4504 35.4233 52.1707 35.5061ZM57.391 44.4712L54.9118 36.0961L56.4625 35.637L56.8705 37.0154L56.9829 36.9822C57.0202 36.466 57.1977 36.0196 57.5153 35.6431C57.8365 35.2602 58.2718 34.9874 58.8211 34.8248C59.3805 34.6592 59.8866 34.6533 60.3395 34.8071C60.7959 34.9545 61.1853 35.233 61.5076 35.6428L61.5975 35.6161C61.6627 35.1025 61.8734 34.6491 62.2295 34.2558C62.5842 33.8575 63.0611 33.5696 63.6604 33.3922C64.4195 33.1675 65.1123 33.2232 65.7386 33.5592C66.3635 33.8903 66.8178 34.5352 67.1017 35.4941L68.7626 41.105L67.1296 41.5884L65.513 36.1273C65.3444 35.558 65.0684 35.1943 64.6848 35.0363C64.2998 34.8732 63.8925 34.8553 63.4631 34.9824C62.9337 35.1391 62.5704 35.4259 62.3734 35.8427C62.1798 36.2531 62.1569 36.708 62.3048 37.2074L63.8859 42.5486L62.2528 43.032L60.6052 37.4661C60.4706 37.0116 60.2229 36.6884 59.8619 36.4966C59.5009 36.3047 59.0932 36.276 58.6387 36.4105C58.3291 36.5022 58.0663 36.6696 57.8504 36.9127C57.638 37.1494 57.4948 37.4363 57.4208 37.7732C57.3502 38.1037 57.3704 38.4562 57.4812 38.8308L59.0091 43.9922L57.391 44.4712ZM74.7118 32.4673L73.3114 33.1589C73.1338 32.9073 72.8803 32.7026 72.5512 32.5447C72.227 32.3854 71.8102 32.3811 71.3008 32.5319C70.8413 32.6679 70.4878 32.8866 70.2403 33.188C69.9963 33.483 69.9216 33.7903 70.0162 34.1099C70.099 34.3896 70.2686 34.5865 70.5251 34.7007C70.7866 34.8134 71.1601 34.8549 71.6456 34.8252L73.0752 34.7279C73.8911 34.6765 74.5442 34.7819 75.0346 35.0441C75.5251 35.3063 75.8568 35.7296 76.0297 36.3139C76.1791 36.8183 76.1673 37.3107 75.9944 37.7909C75.8201 38.2662 75.509 38.6924 75.0611 39.0694C74.6117 39.4414 74.05 39.7272 73.3758 39.9268C72.4369 40.2047 71.6129 40.2286 70.9038 39.9986C70.1948 39.7685 69.6642 39.3063 69.312 38.6121L70.8067 37.9089C71.0278 38.2889 71.3217 38.5386 71.6885 38.6582C72.0602 38.7763 72.4908 38.7629 72.9802 38.618C73.5096 38.4613 73.9008 38.2233 74.1539 37.9039C74.412 37.5831 74.4937 37.2629 74.3991 36.9433C74.2424 36.4139 73.7422 36.1736 72.8984 36.2224L71.3894 36.3269C70.5521 36.3792 69.8893 36.2685 69.4009 35.9949C68.916 35.7147 68.5864 35.28 68.4119 34.6907C68.2656 34.1963 68.2743 33.7211 68.4381 33.2653C68.6069 32.8079 68.9032 32.4052 69.327 32.057C69.7543 31.7024 70.2801 31.4327 70.9044 31.2479C71.8133 30.9788 72.5834 30.9654 73.2146 31.2077C73.8507 31.4484 74.3498 31.8683 74.7118 32.4673ZM77.8869 38.404L75.4077 30.0289L77.0258 29.5499L79.505 37.925L77.8869 38.404ZM75.8428 28.4987C75.5581 28.5829 75.2878 28.5597 75.0319 28.4291C74.7759 28.2985 74.6088 28.1008 74.5304 27.8361C74.4506 27.5664 74.4825 27.3071 74.6261 27.0582C74.7696 26.8093 74.9838 26.6427 75.2684 26.5585C75.5481 26.4757 75.8159 26.4996 76.0719 26.6302C76.3328 26.7594 76.5032 26.9588 76.583 27.2285C76.6614 27.4932 76.6262 27.7507 76.4777 28.0011C76.3341 28.25 76.1225 28.4159 75.8428 28.4987ZM84.6275 36.596C83.8235 36.834 83.0746 36.8547 82.3809 36.6581C81.6871 36.4615 81.0869 36.0852 80.5801 35.5291C80.0733 34.973 79.6957 34.2755 79.4473 33.4364C79.1945 32.5824 79.1318 31.7835 79.2592 31.0397C79.3902 30.2894 79.6914 29.6462 80.1628 29.1101C80.6377 28.5676 81.2672 28.1802 82.0512 27.9481C82.6905 27.7589 83.2921 27.7085 83.856 27.7968C84.4234 27.8787 84.9222 28.0868 85.3525 28.4212C85.7878 28.754 86.1165 29.1945 86.3385 29.7425L84.7503 30.2127C84.6171 29.9642 84.438 29.7538 84.2131 29.5814C83.9933 29.4075 83.7368 29.2933 83.4436 29.2388C83.1505 29.1844 82.8291 29.2089 82.4795 29.3124C82.0251 29.4469 81.6635 29.6843 81.3949 30.0245C81.1298 30.3583 80.9674 30.773 80.9077 31.2687C80.848 31.7644 80.9069 32.3118 81.0843 32.9111C81.2631 33.5154 81.5115 34.0149 81.8293 34.4097C82.1472 34.8045 82.5121 35.074 82.9242 35.2181C83.3397 35.3559 83.7747 35.3574 84.2292 35.2229C84.6986 35.0839 85.0597 34.8358 85.3125 34.4786C85.5702 34.1198 85.68 33.7017 85.6418 33.2241L87.2299 32.754C87.3361 33.3146 87.3047 33.8508 87.1358 34.3625C86.9668 34.8742 86.6713 35.3256 86.2493 35.7167C85.8273 36.1078 85.2867 36.4009 84.6275 36.596ZM91.6489 34.5257C91.1196 34.6824 90.6113 34.7269 90.1242 34.6593C89.6355 34.5866 89.2102 34.3975 88.8481 34.0919C88.4861 33.7862 88.2245 33.3613 88.0633 32.8169C87.9229 32.3425 87.8982 31.9288 87.9893 31.5759C88.0839 31.2166 88.2594 30.9012 88.5158 30.6297C88.7722 30.3583 89.0769 30.1215 89.4298 29.9192C89.7828 29.717 90.1516 29.5317 90.5364 29.3635C91.0245 29.1593 91.4175 28.9913 91.7153 28.8597C92.0131 28.7281 92.2194 28.5992 92.3341 28.4729C92.4523 28.3401 92.4826 28.1763 92.4249 27.9816L92.4138 27.9441C92.2734 27.4697 92.0299 27.1425 91.6833 26.9626C91.3417 26.7813 90.9088 26.7682 90.3844 26.9235C89.84 27.0846 89.4435 27.3324 89.1949 27.6667C88.9497 27.9945 88.8116 28.326 88.7804 28.6612L87.1405 28.7637C87.1745 28.1996 87.3204 27.711 87.5784 27.2979C87.8398 26.8783 88.1763 26.5288 88.5879 26.2494C89.0045 25.9686 89.4625 25.7542 89.9619 25.6064C90.2965 25.5074 90.6629 25.4423 91.0612 25.4114C91.4579 25.3754 91.8521 25.4135 92.2438 25.5257C92.639 25.6314 92.9984 25.8455 93.322 26.1679C93.6456 26.4904 93.8976 26.9563 94.0779 27.5655L95.7234 33.124L94.1277 33.5963L93.7885 32.4502L93.7285 32.4679C93.6893 32.7023 93.5926 32.9536 93.4384 33.2219C93.2893 33.4888 93.0699 33.7384 92.7802 33.9708C92.4905 34.2032 92.1134 34.3882 91.6489 34.5257ZM91.6152 33.118C92.0696 32.9834 92.4308 32.7815 92.6987 32.5121C92.9651 32.2377 93.1403 31.9305 93.2244 31.5906C93.3084 31.2506 93.3024 30.9184 93.2063 30.5938L92.8848 29.5075C92.8411 29.5802 92.7443 29.6659 92.5942 29.7646C92.4442 29.8634 92.2695 29.9613 92.0701 30.0583C91.8707 30.1554 91.6755 30.2484 91.4847 30.3375C91.2923 30.4216 91.1309 30.4911 91.0005 30.546C90.6992 30.6841 90.4327 30.839 90.2011 31.0108C89.968 31.1776 89.7982 31.3745 89.6916 31.6016C89.5885 31.8222 89.5798 32.0774 89.6656 32.367C89.7853 32.7715 90.0253 33.0318 90.3856 33.1479C90.7459 33.264 91.1557 33.254 91.6152 33.118ZM95.603 21.0197L98.9071 32.1815L97.289 32.6605L93.9849 21.4987L95.603 21.0197Z" fill="white"/>
<rect x="0.621358" y="34.6827" width="120" height="39" rx="19.5" transform="rotate(-16.4899 0.621358 34.6827)" stroke="#303030"/>
</svg>
