<svg width="132" height="78" viewBox="0 0 132 78" fill="none" xmlns="http://www.w3.org/2000/svg">
<rect x="12.8125" y="1.42871" width="124" height="39" rx="19.5" transform="rotate(17.799 12.8125 1.42871)" fill="#141414"/>
<path d="M32.8645 34.8126C31.9124 34.5069 31.1326 34.005 30.5253 33.3067C29.918 32.6085 29.5348 31.7661 29.3756 30.7796C29.218 29.7882 29.3279 28.7048 29.7052 27.5295C30.0857 26.3443 30.6278 25.3969 31.3315 24.6875C32.0417 23.9746 32.8445 23.5103 33.7397 23.2944C34.64 23.0802 35.5662 23.1259 36.5183 23.4316C37.1035 23.6195 37.6244 23.8797 38.081 24.2123C38.5427 24.5465 38.925 24.94 39.2282 25.3929C39.5313 25.8458 39.7395 26.3475 39.8527 26.898C39.9708 27.4502 39.9798 28.0356 39.8796 28.6544L38.1985 28.1147C38.2502 27.732 38.2306 27.3756 38.1397 27.0455C38.0553 26.7121 37.9144 26.4098 37.717 26.1385C37.5262 25.8639 37.2872 25.6286 37.0001 25.4325C36.7195 25.233 36.4032 25.0767 36.0511 24.9637C35.4163 24.7599 34.7918 24.7372 34.1775 24.8955C33.5698 25.0505 33.0194 25.3935 32.5262 25.9244C32.0396 26.4519 31.6522 27.1645 31.364 28.0621C31.0742 28.9646 30.9761 29.7728 31.0697 30.4866C31.1649 31.1954 31.4144 31.7898 31.8183 32.2695C32.2223 32.7493 32.7391 33.0903 33.3689 33.2925C33.721 33.4055 34.0684 33.4651 34.4111 33.4711C34.7537 33.4772 35.0843 33.4274 35.4026 33.3218C35.721 33.2161 36.01 33.0573 36.2695 32.8452C36.5356 32.6298 36.7607 32.3547 36.9447 32.0199L38.6258 32.5596C38.3648 33.083 38.0321 33.5314 37.6278 33.9049C37.225 34.2734 36.7695 34.5592 36.2611 34.7625C35.7544 34.9609 35.2137 35.069 34.639 35.0869C34.066 35.0999 33.4745 35.0084 32.8645 34.8126ZM38.7292 36.5313L41.3991 28.215L43.0058 28.7309L40.3359 37.0472L38.7292 36.5313ZM42.6207 27.1959C42.338 27.1052 42.1278 26.9337 41.9899 26.6816C41.852 26.4295 41.8253 26.172 41.9097 25.9092C41.9956 25.6414 42.1681 25.4451 42.4269 25.3203C42.6858 25.1956 42.9565 25.1786 43.2392 25.2693C43.5169 25.3585 43.7247 25.5291 43.8626 25.7812C44.0054 26.035 44.0338 26.2957 43.9478 26.5635C43.8634 26.8263 43.6893 27.0193 43.4255 27.1425C43.1667 27.2673 42.8984 27.2851 42.6207 27.1959ZM45.0732 33.128L43.4899 38.0597L41.8831 37.5439L44.5531 29.2276L46.1152 29.7291L45.6757 31.0978L45.7873 31.1336C46.1206 30.7428 46.5303 30.4805 47.0164 30.3467C47.5041 30.2078 48.0628 30.2395 48.6926 30.4417C49.2579 30.6232 49.7131 30.9006 50.0582 31.274C50.4099 31.644 50.6274 32.0995 50.7108 32.6404C50.7992 33.183 50.7327 33.7989 50.5114 34.4883L48.8159 39.7696L47.2092 39.2538L48.8426 34.1658C49.0353 33.5658 49.0278 33.0437 48.8203 32.5997C48.6144 32.1506 48.2387 31.8386 47.6932 31.6634C47.3212 31.544 46.9594 31.5209 46.6078 31.5939C46.2626 31.6637 45.9564 31.8252 45.6891 32.0785C45.4218 32.3318 45.2165 32.6817 45.0732 33.128ZM53.8861 41.5861C53.0728 41.325 52.4252 40.9229 51.9431 40.3798C51.4611 39.8366 51.1616 39.1935 51.0446 38.4503C50.9342 37.7037 51.0167 36.9014 51.2921 36.0435C51.566 35.1906 51.9634 34.4894 52.4844 33.9401C53.0103 33.3924 53.6165 33.029 54.3031 32.8501C54.9961 32.6678 55.7294 32.7009 56.5031 32.9492C56.9742 33.1005 57.4057 33.3238 57.7977 33.6192C58.1897 33.9147 58.5084 34.285 58.7539 34.7303C58.9993 35.1756 59.1385 35.6962 59.1714 36.2921C59.2094 36.8896 59.1081 37.5627 58.8677 38.3115L58.6814 38.8917L52.0686 36.7687L52.4578 35.5562L58.2376 37.4118L57.3573 37.5723C57.5213 37.0615 57.5869 36.5847 57.5539 36.142C57.521 35.6993 57.3809 35.3179 57.1336 34.9978C56.8928 34.6744 56.5393 34.4378 56.0732 34.2882C55.607 34.1385 55.172 34.1219 54.7681 34.2384C54.3692 34.3565 54.024 34.5712 53.7326 34.8824C53.4413 35.1936 53.2255 35.5675 53.0854 36.0039L52.8203 36.8295C52.6372 37.3998 52.5812 37.9152 52.6522 38.3756C52.7232 38.836 52.9013 39.2268 53.1865 39.5482C53.4767 39.8711 53.8574 40.1082 54.3285 40.2594C54.6359 40.3581 54.928 40.4026 55.2046 40.393C55.4861 40.3849 55.7473 40.3211 55.9881 40.2015C56.2289 40.0818 56.4386 39.9057 56.6172 39.6732L58.0564 40.4552C57.7892 40.8617 57.4452 41.1834 57.0245 41.4203C56.6038 41.6573 56.1252 41.7935 55.5886 41.8291C55.0586 41.8614 54.4911 41.7804 53.8861 41.5861ZM58.6348 42.9219L61.3047 34.6056L62.8445 35.1L62.405 36.4687L62.5166 36.5045C62.8383 36.099 63.2363 35.8303 63.7109 35.6982C64.192 35.5627 64.7053 35.5825 65.2508 35.7577C65.8062 35.936 66.2277 36.2162 66.5152 36.5985C66.8093 36.9773 66.9741 37.4268 67.0095 37.9469L67.0988 37.9756C67.442 37.588 67.8715 37.332 68.3874 37.2077C68.9048 37.0784 69.461 37.1093 70.0561 37.3004C70.8099 37.5424 71.3509 37.9786 71.679 38.6091C72.0088 39.2347 72.0209 40.0235 71.7152 40.9756L69.9265 46.5471L68.3049 46.0265L70.0458 40.6038C70.2273 40.0385 70.2041 39.5825 69.9763 39.2358C69.75 38.8842 69.4236 38.6399 68.9972 38.503C68.4715 38.3342 68.0099 38.3665 67.6122 38.5999C67.2211 38.8299 66.9459 39.1929 66.7867 39.6888L65.084 44.9924L63.4624 44.4718L65.2368 38.945C65.3816 38.4937 65.359 38.0871 65.1689 37.7252C64.9787 37.3633 64.658 37.1099 64.2067 36.9651C63.8993 36.8663 63.5879 36.8566 63.2725 36.9359C62.9637 37.0118 62.6838 37.1681 62.4327 37.4048C62.1883 37.6381 62.0063 37.9407 61.8869 38.3126L60.2415 43.4378L58.6348 42.9219ZM73.8265 47.9961C73.3008 47.8274 72.8558 47.5778 72.4914 47.2475C72.1286 46.9122 71.8837 46.5163 71.7568 46.0598C71.6298 45.6033 71.6531 45.1048 71.8267 44.5643C71.9779 44.0932 72.1906 43.7375 72.4646 43.4973C72.7452 43.2537 73.0679 43.092 73.4327 43.0122C73.7975 42.9324 74.1826 42.9083 74.5882 42.9401C74.9937 42.9718 75.4028 43.0265 75.8154 43.1043C76.3338 43.2106 76.7531 43.2932 77.0733 43.3523C77.3935 43.4113 77.6366 43.4209 77.8025 43.3812C77.9749 43.3381 78.0922 43.2199 78.1543 43.0265L78.1662 42.9893C78.3175 42.5182 78.3006 42.1107 78.1156 41.7669C77.9356 41.4246 77.5852 41.1699 77.0645 41.0027C76.524 40.8292 76.0568 40.8105 75.663 40.9466C75.2758 41.0794 74.9749 41.2755 74.7603 41.5348L73.3477 40.6956C73.6935 40.2487 74.0894 39.9272 74.5352 39.7312C74.9876 39.5318 75.4626 39.4327 75.96 39.4338C76.4624 39.4364 76.9616 39.5174 77.4575 39.6766C77.7897 39.7832 78.1291 39.9359 78.4755 40.1347C78.8236 40.3285 79.1278 40.5821 79.3882 40.8954C79.6552 41.2054 79.8315 41.5848 79.9172 42.0335C80.0029 42.4822 79.9487 43.009 79.7544 43.614L77.9824 49.1334L76.398 48.6248L76.7634 47.4867L76.7039 47.4676C76.5394 47.639 76.318 47.7922 76.0394 47.9271C75.7659 48.0635 75.444 48.1462 75.0737 48.175C74.7034 48.2038 74.2877 48.1442 73.8265 47.9961ZM74.5916 46.814C75.0429 46.9589 75.4551 46.9955 75.8282 46.9239C76.2029 46.8472 76.5207 46.6922 76.7816 46.4587C77.0426 46.2252 77.2248 45.9473 77.3283 45.6249L77.6746 44.5463C77.5975 44.5818 77.4693 44.598 77.2897 44.5951C77.1101 44.5921 76.9106 44.5746 76.6912 44.5424C76.4718 44.5103 76.2581 44.4772 76.0502 44.4433C75.8439 44.4044 75.6714 44.3709 75.5327 44.3428C75.206 44.2871 74.8985 44.265 74.6104 44.2765C74.3239 44.2829 74.0726 44.35 73.8566 44.4775C73.6472 44.6017 73.4963 44.8077 73.4039 45.0953C73.275 45.497 73.3266 45.8472 73.5589 46.1461C73.7911 46.4449 74.1354 46.6676 74.5916 46.814ZM83.3711 48.4757L83.8034 47.1294L91.0174 41.0925L92.0812 41.434L91.4411 43.4275L90.7568 43.2078L85.5965 47.5245L85.5679 47.6138L92.1361 49.7225L91.68 51.1433L83.3711 48.4757ZM87.9129 52.3216L88.7392 49.7478L88.9523 49.1352L91.4861 41.2429L93.0779 41.754L89.5196 52.8374L87.9129 52.3216ZM95.284 54.8686C94.6096 54.6521 94.0645 54.2883 93.6487 53.7774C93.2345 53.2615 92.9813 52.6359 92.8891 51.9007C92.7986 51.1605 92.8966 50.3441 93.1831 49.4515C93.4729 48.5489 93.8717 47.8263 94.3796 47.2837C94.8875 46.7411 95.4584 46.3856 96.0923 46.2172C96.7262 46.0487 97.3754 46.0712 98.0399 46.2845C98.5606 46.4517 98.9493 46.6722 99.206 46.946C99.4693 47.2165 99.6511 47.4937 99.7514 47.7776C99.8567 48.063 99.9286 48.3076 99.9671 48.5114L100.064 48.5425L101.387 44.4215L102.994 44.9373L99.4352 56.0208L97.8657 55.5169L98.2812 54.2226L98.1473 54.1796C97.9974 54.3229 97.794 54.4792 97.5373 54.6484C97.2806 54.8176 96.9657 54.938 96.5926 55.0097C96.226 55.078 95.7899 55.031 95.284 54.8686ZM96.0754 53.6047C96.5416 53.7543 96.9756 53.7569 97.3776 53.6125C97.7795 53.468 98.1332 53.2014 98.4385 52.8125C98.7488 52.4253 98.9971 51.9416 99.1834 51.3614C99.3696 50.7812 99.4502 50.2491 99.4251 49.7651C99.4015 49.2762 99.2668 48.861 99.0209 48.5195C98.7766 48.173 98.4188 47.9241 97.9477 47.7729C97.4618 47.6168 97.017 47.6135 96.6135 47.763C96.2099 47.9124 95.8563 48.179 95.5525 48.5629C95.2488 48.9467 95.0085 49.4139 94.8318 49.9644C94.6535 50.5198 94.5745 51.0469 94.5949 51.5457C94.6168 52.0396 94.7476 52.4673 94.9871 52.8286C95.2317 53.1916 95.5944 53.4503 96.0754 53.6047Z" fill="white"/>
<rect x="12.8125" y="1.42871" width="124" height="39" rx="19.5" transform="rotate(17.799 12.8125 1.42871)" stroke="#303030"/>
</svg>
