<svg width="135" height="73" viewBox="0 0 135 73" fill="none" xmlns="http://www.w3.org/2000/svg">
<rect x="11.0487" y="0.615535" width="127" height="39" rx="19.5" transform="rotate(15.5165 11.0487 0.615535)" fill="#141414"/>
<path d="M28.7299 31.9891L26.9308 31.4896L34.0797 21.3934L36.0369 21.9368L36.9502 34.2713L35.1586 33.7739L34.5296 23.7156L34.4392 23.6905L28.7299 31.9891ZM30.2495 27.684L36.0684 29.2996L35.6755 30.7148L29.8566 29.0992L30.2495 27.684ZM44.0669 27.1824L43.7012 28.4998L38.9512 27.181L39.3169 25.8637L44.0669 27.1824ZM38.2751 34.6392L40.8834 25.2445C41.0283 24.7226 41.2643 24.3205 41.5912 24.0384C41.9246 23.7526 42.3032 23.5766 42.727 23.5105C43.1572 23.4407 43.5905 23.4664 44.0272 23.5876C44.3634 23.681 44.6418 23.788 44.8623 23.9087C45.0829 24.0294 45.2428 24.1251 45.342 24.1959L44.5828 25.4122C44.5144 25.3662 44.4243 25.3114 44.3122 25.2478C44.2051 25.1857 44.0637 25.1302 43.8881 25.0815C43.4916 24.9714 43.1777 24.9923 42.9463 25.1443C42.7163 25.2913 42.5491 25.5529 42.4446 25.9293L39.9011 35.0906L38.2751 34.6392ZM49.0202 28.5576L48.6545 29.875L44.0625 28.6001L44.4283 27.2828L49.0202 28.5576ZM46.2112 25.621L47.8448 26.0746L45.6377 34.0239C45.5305 34.4103 45.532 34.7161 45.6425 34.9414C45.7543 35.1616 45.9884 35.3212 46.3447 35.4201C46.43 35.4438 46.5217 35.4639 46.6199 35.4803C46.723 35.4981 46.8276 35.511 46.9335 35.5187L46.866 36.9594C46.685 36.9687 46.4925 36.9612 46.2884 36.9369C46.0843 36.9127 45.8844 36.8734 45.6887 36.8191C44.961 36.617 44.4353 36.2522 44.1116 35.7245C43.7892 35.1917 43.7228 34.5841 43.9123 33.9016L46.2112 25.621ZM51.3404 38.453C50.5174 38.2245 49.8542 37.8485 49.3509 37.325C48.8476 36.8015 48.5227 36.1708 48.3763 35.4328C48.2362 34.6912 48.2867 33.8864 48.5277 33.0182C48.7674 32.155 49.1366 31.4386 49.6353 30.8689C50.139 30.3007 50.7302 29.9135 51.4091 29.7074C52.0943 29.4976 52.8284 29.5014 53.6113 29.7188C54.0881 29.8511 54.5282 30.0571 54.9316 30.3367C55.3351 30.6163 55.6683 30.9736 55.9312 31.4088C56.1942 31.844 56.354 32.3586 56.4107 32.9527C56.4724 33.5482 56.398 34.2249 56.1876 34.9827L56.0246 35.5698L49.3324 33.7118L49.6731 32.4848L55.5222 34.1087L54.649 34.3041C54.7925 33.7872 54.839 33.3082 54.7885 32.8672C54.738 32.4261 54.5828 32.0506 54.3229 31.7406C54.0694 31.427 53.7068 31.2047 53.2351 31.0738C52.7634 30.9428 52.328 30.9436 51.9291 31.076C51.5352 31.2099 51.1988 31.4381 50.9201 31.7607C50.6413 32.0834 50.4406 32.4655 50.318 32.9071L50.086 33.7427C49.9258 34.3198 49.8903 34.837 49.9796 35.2942C50.0689 35.7514 50.2624 36.1349 50.5602 36.4446C50.863 36.7557 51.2528 36.9774 51.7296 37.1098C52.0407 37.1961 52.3343 37.229 52.6103 37.2083C52.8913 37.1891 53.1497 37.1149 53.3856 36.9858C53.6214 36.8566 53.824 36.6723 53.9932 36.4328L55.4624 37.1569C55.2115 37.5738 54.8806 37.9089 54.4697 38.1624C54.0588 38.4159 53.586 38.5711 53.0513 38.628C52.5229 38.6814 51.9527 38.623 51.3404 38.453ZM56.1385 39.5987L58.4751 31.1826L60.0484 31.6194L59.6743 32.9669L59.7646 32.992C60.0456 32.5835 60.4155 32.3024 60.8744 32.1488C61.3397 31.9915 61.8182 31.9811 62.31 32.1176C62.4104 32.1455 62.5269 32.1833 62.6597 32.2309C62.7988 32.2749 62.9096 32.3138 62.9921 32.3476L62.5574 33.9133C62.4978 33.8751 62.3854 33.8223 62.2203 33.7549C62.0603 33.6888 61.895 33.6321 61.7243 33.5847C61.3379 33.4774 60.9686 33.4641 60.6165 33.5447C60.2708 33.6217 59.9705 33.7789 59.7154 34.0162C59.4667 34.2498 59.2909 34.5523 59.1878 34.9237L57.7645 40.0501L56.1385 39.5987ZM68.4284 43.1973C67.6054 42.9688 66.9422 42.5928 66.4389 42.0693C65.9356 41.5457 65.6107 40.915 65.4643 40.1771C65.3242 39.4355 65.3747 38.6306 65.6158 37.7624C65.8554 36.8992 66.2246 36.1828 66.7233 35.6131C67.227 35.0449 67.8183 34.6577 68.4971 34.4516C69.1824 34.2418 69.9164 34.2457 70.6993 34.463C71.1761 34.5954 71.6162 34.8013 72.0196 35.0809C72.4231 35.3605 72.7563 35.7179 73.0193 36.153C73.2822 36.5882 73.442 37.1028 73.4987 37.6969C73.5604 38.2924 73.486 38.9691 73.2757 39.7269L73.1126 40.3141L66.4205 38.4561L66.7611 37.229L72.6102 38.853L71.737 39.0484C71.8805 38.5315 71.927 38.0525 71.8765 37.6114C71.826 37.1704 71.6708 36.7949 71.4109 36.4849C71.1575 36.1713 70.7949 35.949 70.3231 35.818C69.8514 35.687 69.416 35.6878 69.0171 35.8203C68.6232 35.9541 68.2868 36.1824 68.0081 36.505C67.7293 36.8276 67.5286 37.2097 67.406 37.6513L67.1741 38.4869C67.0138 39.064 66.9783 39.5812 67.0676 40.0384C67.1569 40.4956 67.3504 40.8791 67.6482 41.1888C67.951 41.4999 68.3408 41.7216 68.8176 41.854C69.1287 41.9404 69.4223 41.9732 69.6983 41.9526C69.9793 41.9333 70.2378 41.8591 70.4736 41.73C70.7095 41.6009 70.912 41.4166 71.0812 41.1771L72.5504 41.9012C72.2995 42.318 71.9686 42.6532 71.5577 42.9066C71.1468 43.1601 70.674 43.3153 70.1393 43.3723C69.611 43.4256 69.0407 43.3673 68.4284 43.1973ZM79.5679 37.0387L79.2021 38.3561L74.4521 37.0373L74.8178 35.72L79.5679 37.0387ZM73.776 44.4955L76.3843 35.1008C76.5292 34.5789 76.7652 34.1769 77.0922 33.8947C77.4256 33.6089 77.8041 33.4329 78.2279 33.3668C78.6581 33.297 79.0915 33.3227 79.5281 33.444C79.8643 33.5373 80.1427 33.6443 80.3633 33.765C80.5838 33.8857 80.7437 33.9815 80.843 34.0523L80.0837 35.2685C80.0154 35.2225 79.9252 35.1677 79.8131 35.1041C79.706 35.042 79.5647 34.9865 79.389 34.9378C78.9926 34.8277 78.6786 34.8486 78.4473 35.0006C78.2173 35.1476 78.05 35.4092 77.9455 35.7856L75.402 44.9469L73.776 44.4955ZM84.6115 38.439L84.2457 39.7564L79.4957 38.4376L79.8614 37.1203L84.6115 38.439ZM78.8196 45.8958L81.4279 36.5011C81.5728 35.9792 81.8088 35.5771 82.1358 35.295C82.4692 35.0091 82.8477 34.8332 83.2715 34.767C83.7017 34.6973 84.1351 34.723 84.5717 34.8442C84.9079 34.9376 85.1863 35.0446 85.4068 35.1653C85.6274 35.286 85.7873 35.3817 85.8866 35.4525L85.1273 36.6687C85.059 36.6228 84.9688 36.568 84.8567 36.5044C84.7496 36.4423 84.6083 36.3868 84.4326 36.338C84.0362 36.228 83.7222 36.2489 83.4909 36.4009C83.2609 36.5479 83.0936 36.8095 82.9891 37.1859L80.4456 46.3472L78.8196 45.8958ZM86.5553 48.2299C85.7322 48.0014 85.0691 47.6254 84.5658 47.1019C84.0625 46.5784 83.7376 45.9477 83.5911 45.2097C83.4511 44.4681 83.5016 43.6632 83.7426 42.795C83.9823 41.9319 84.3514 41.2154 84.8501 40.6458C85.3538 40.0776 85.9451 39.6904 86.6239 39.4842C87.3092 39.2745 88.0433 39.2783 88.8262 39.4957C89.3029 39.628 89.743 39.834 90.1465 40.1136C90.5499 40.3932 90.8831 40.7505 91.1461 41.1857C91.4091 41.6209 91.5689 42.1355 91.6256 42.7296C91.6872 43.3251 91.6129 44.0017 91.4025 44.7595L91.2395 45.3467L84.5473 43.4887L84.888 42.2617L90.737 43.8856L89.8639 44.081C90.0074 43.5641 90.0539 43.0851 90.0034 42.6441C89.9528 42.203 89.7976 41.8275 89.5378 41.5175C89.2843 41.2039 88.9217 40.9816 88.45 40.8507C87.9782 40.7197 87.5429 40.7204 87.1439 40.8529C86.75 40.9868 86.4137 41.215 86.1349 41.5376C85.8562 41.8602 85.6555 42.2424 85.5329 42.684L85.3009 43.5196C85.1407 44.0967 85.1052 44.6139 85.1945 45.0711C85.2837 45.5283 85.4773 45.9118 85.7751 46.2215C86.0779 46.5326 86.4677 46.7543 86.9444 46.8866C87.2556 46.973 87.5491 47.0059 87.8252 46.9852C88.1062 46.9659 88.3646 46.8918 88.6005 46.7626C88.8363 46.6335 89.0388 46.4492 89.208 46.2097L90.6772 46.9338C90.4264 47.3507 90.0955 47.6858 89.6846 47.9393C89.2737 48.1928 88.8008 48.348 88.2661 48.4049C87.7378 48.4583 87.1675 48.3999 86.5553 48.2299ZM94.8358 50.5289C94.0278 50.3046 93.3818 49.9252 92.8977 49.3908C92.4137 48.8565 92.1041 48.2192 91.9691 47.479C91.8341 46.7388 91.8836 45.9471 92.1177 45.104C92.3559 44.2459 92.7262 43.5352 93.2285 42.9719C93.7372 42.4051 94.3335 42.0193 95.0174 41.8146C95.7077 41.6062 96.4468 41.6114 97.2347 41.8302C97.877 42.0085 98.4139 42.2846 98.8452 42.6584C99.283 43.0286 99.5957 43.4694 99.7834 43.981C99.9761 44.494 100.021 45.0417 99.9191 45.6241L98.3232 45.181C98.3419 44.8997 98.3016 44.6263 98.2023 44.3609C98.108 44.0969 97.951 43.8642 97.7313 43.6626C97.5116 43.4611 97.2261 43.3115 96.8748 43.214C96.4181 43.0872 95.9857 43.0969 95.5775 43.243C95.1758 43.3856 94.8183 43.6512 94.505 44.0398C94.1917 44.4285 93.9514 44.924 93.7842 45.5262C93.6156 46.1334 93.5615 46.6887 93.6218 47.1919C93.682 47.6951 93.8487 48.117 94.1217 48.4577C94.4011 48.7947 94.7691 49.0266 95.2258 49.1534C95.6975 49.2844 96.1352 49.2654 96.5389 49.0964C96.9476 48.9288 97.2623 48.6324 97.4831 48.2072L99.079 48.6502C98.8719 49.1819 98.5611 49.62 98.1466 49.9643C97.732 50.3087 97.2422 50.5349 96.6771 50.6428C96.112 50.7508 95.4982 50.7128 94.8358 50.5289ZM105.749 44.3077L105.384 45.625L100.792 44.3501L101.157 43.0328L105.749 44.3077ZM102.94 41.3711L104.574 41.8246L102.367 49.7739C102.26 50.1603 102.261 50.4662 102.372 50.6914C102.483 50.9117 102.718 51.0712 103.074 51.1702C103.159 51.1938 103.251 51.2139 103.349 51.2303C103.452 51.2482 103.557 51.261 103.663 51.2688L103.595 52.7095C103.414 52.7187 103.222 52.7112 103.018 52.687C102.814 52.6627 102.614 52.6234 102.418 52.5691C101.69 52.3671 101.165 52.0022 100.841 51.4745C100.518 50.9417 100.452 50.3341 100.641 49.6516L102.94 41.3711Z" fill="white"/>
<rect x="11.0487" y="0.615535" width="127" height="39" rx="19.5" transform="rotate(15.5165 11.0487 0.615535)" stroke="#303030"/>
</svg>
